<svg id="Layer_1" data-name="Layer 1" xmlns="http://www.w3.org/2000/svg" viewBox="0 0 129.4 130.7"><defs><style>.cls-1{fill:#fd0;}</style></defs><title>GBox_logo</title><path class="cls-1" d="M319.5,1474.3h-37c-4.9,0-9.5,4.1-9.5,9.1v37.9c0,5,4.6,9,9.5,9h37c4.9,0,9.5-4,9.5-9v-37.9c0-5-4.6-9.1-9.5-9.1m0,47h-37v-37.9h37Z" transform="translate(-273 -1399.6)"/><path class="cls-1" d="M383.1,1502.1l17.8-27.8H389.6l-13.2,20.6a5.2,5.2,0,0,1-4.4,2.4h-.8a5,5,0,0,1-4.4-2.4l-13.2-20.6H342.3l17.8,27.9-19,28.1h11.5l14.6-21.6a5.5,5.5,0,0,1,4.4-2.4h.2a5.2,5.2,0,0,1,4.3,2.4l14.7,21.6h11.6Z" transform="translate(-273 -1399.6)"/><path class="cls-1" d="M297.1,1422.6l-5.3,9h27.7v15h-37v-37.9h41.1l5.4-9.1H282.5c-4.8,0-9.5,4.1-9.5,9.1v37.9c0,4.9,4.7,9,9.5,9h37c4.8,0,9.4-4.1,9.4-9v-24Z" transform="translate(-273 -1399.6)"/><path class="cls-1" d="M389.6,1399.6H348.8v56h40.8c4.9,0,9.5-4,9.5-9V1436c0-5-3-9.1-7.8-9.1,4.8,0,7.8-4,7.8-9v-9.3c0-5-4.6-9-9.5-9m0,43.3a3.7,3.7,0,0,1-3.6,3.7H358.2v-15H386a3.7,3.7,0,0,1,3.6,3.7Zm0-24a3.7,3.7,0,0,1-3.6,3.7H358.2v-14H386a3.7,3.7,0,0,1,3.6,3.7Z" transform="translate(-273 -1399.6)"/></svg>