<svg id="Layer_1" data-name="Layer 1" xmlns="http://www.w3.org/2000/svg" viewBox="0 0 193.2 241.7"><defs><style>.cls-1{fill:#231f20;}</style></defs><title>logo-contact</title><path class="cls-1" d="M769,862.7H713.8c-7.2,0-14.1,6-14.1,13.4v56.5c0,7.5,6.9,13.5,14.1,13.5H769c7.2,0,14.1-6,14.1-13.5V876.1c0-7.4-6.9-13.4-14.1-13.4m0,69.9H713.8V876.1H769Z" transform="translate(-699.4 -751.2)"/><path class="cls-1" d="M863.9,904l26.6-41.3h-17l-19.7,30.7a7.8,7.8,0,0,1-6.5,3.5H846a7.8,7.8,0,0,1-6.5-3.5l-19.7-30.7H802.9l26.7,41.5-28.4,41.9h17.2l21.7-32.2a8,8,0,0,1,6.5-3.5h.4a8.1,8.1,0,0,1,6.5,3.5l21.9,32.2h17.2Z" transform="translate(-699.4 -751.2)"/><path class="cls-1" d="M735.7,785.5l-8,13.5H769v22.2H713.8V764.7h61.3l8-13.4H713.8c-7.2,0-14.1,6-14.1,13.4v56.5c0,7.5,6.9,13.5,14.1,13.5H769c7.2,0,14.1-6,14.1-13.5V785.5Z" transform="translate(-699.4 -751.2)"/><path class="cls-1" d="M873.6,751.2h-61v83.6h61c7.2,0,14.1-6.1,14.1-13.5V805.5c0-7.4-4.5-13.5-11.7-13.5,7.2,0,11.7-6,11.7-13.5V764.7c0-7.5-6.9-13.5-14.1-13.5m0,64.6a5.5,5.5,0,0,1-5.4,5.5H826.7V799h41.5a5.5,5.5,0,0,1,5.4,5.5Zm0-35.8a5.5,5.5,0,0,1-5.4,5.5H826.7V764.7h41.5a5.5,5.5,0,0,1,5.4,5.5Z" transform="translate(-699.4 -751.2)"/><path class="cls-1" d="M701.8,987.1c.8,2.5,2.2,3.6,4.8,3.6s4.6-1.5,4.6-4.5a4,4,0,0,0-1.2-3.1c-.7-.7-.9-.7-3.8-1.6s-6.1-3.1-6.1-6.6,2.5-6.4,6.6-6.4,5.6,1.5,6.3,4.7l-2.3.6c-.7-2.3-1.8-3.1-4-3.1s-3.9,1.5-3.9,4,1.2,3.7,4.7,4.7,3.4,1,4.4,1.8a5.9,5.9,0,0,1,2,4.9c0,4.4-2.5,6.8-7.3,6.8s-6.3-1.5-7.2-5.2Z" transform="translate(-699.4 -751.2)"/><path class="cls-1" d="M740.2,971h-5.9v-2.2h14.4V971h-5.8v21.6h-2.7Z" transform="translate(-699.4 -751.2)"/><path class="cls-1" d="M773.3,968.8V985c0,2,.2,3.1.8,3.9s1.9,1.8,3.6,1.8,3.3-.6,4.1-2.1a8,8,0,0,0,.5-3.6V968.8h2.8V985c0,2.9-.3,4.2-1.3,5.5s-3.1,2.4-6,2.4-5-.9-6.2-2.8-1-2.4-1-5.1V968.8Z" transform="translate(-699.4 -751.2)"/><path class="cls-1" d="M808.7,968.8h6.6c5.3-.1,7.9,2.6,7.8,7.9v8c.1,5.3-2.5,8-7.8,7.9h-6.6Zm6.4,21.6c3.7.1,5.3-1.7,5.3-6.1V977c0-4.3-1.6-6.1-5.3-6h-3.7v19.4Z" transform="translate(-699.4 -751.2)"/><path class="cls-1" d="M846.3,968.8H849v23.8h-2.7Z" transform="translate(-699.4 -751.2)"/><path class="cls-1" d="M872.1,976.7c0-2.9.5-4.6,1.7-6s3.2-2.2,5.8-2.2,4.8.8,6,2.6,1.4,2.9,1.4,5.6v8c0,2.9-.5,4.6-1.7,6s-3.1,2.2-5.7,2.2-4.8-.8-6.1-2.6-1.4-3-1.4-5.6Zm12.2.3c0-4.4-1.5-6.3-4.7-6.3s-4.7,1.9-4.7,6.3v7.4c0,4.4,1.4,6.3,4.7,6.3s4.7-1.9,4.7-6.3Z" transform="translate(-699.4 -751.2)"/></svg>