<svg id="Capa_1" enable-background="new 0 0 512 512" height="512" viewBox="0 0 512 512" width="512" xmlns="http://www.w3.org/2000/svg"><g><g><g><g><g><g><g><path d="m215.602 508.831c-122.19-19.371-215.602-125.192-215.602-252.831 0-141.385 114.615-256 256-256s256 114.615 256 256c0 127.639-93.412 233.46-215.602 252.831z" fill="#fe8205"/></g></g></g></g></g></g><path d="m512 256c0-16.771-1.613-33.165-4.692-49.036l-63.105-63.104-8.063 16.516-36.01-36.01-64.641 147.907-147.907-147.908-119.785 246.229 136.099 136.099c3.871.8 7.774 1.514 11.706 2.137h80.796c122.19-19.37 215.602-125.191 215.602-252.83z" fill="#f24500"/><g><path d="m215.602 508.83c13.159 2.087 26.652 3.17 40.398 3.17s27.239-1.083 40.398-3.17v-224.856h-80.796z" fill="#636978"/></g><g><path d="m255.644 283.974v228.022c.119 0 .237.003.356.003 13.746 0 27.239-1.083 40.398-3.17v-224.855z" fill="#414952"/></g><g><path d="m67.797 143.859h376.407v226.735h-376.407z" fill="#fff"/></g><g><path d="m255.644 143.859h188.56v226.735h-188.56z" fill="#e9edf5"/></g><g><g><path d="m111.87 124.365h75.712v51.965h-75.712z" fill="#636978"/></g><g><path d="m324.418 124.365h75.712v51.965h-75.712z" fill="#414952"/></g></g><g><path d="m157.951 308.22-13.296-26.592h-10.447v26.592h-20.418v-79.182h39.65c17.569 0 27.541 11.634 27.541 26.354 0 13.771-8.429 21.131-15.789 23.743l16.145 29.085zm2.256-52.947c0-5.342-4.512-8.429-9.854-8.429h-16.145v16.976h16.145c5.342.001 9.854-2.967 9.854-8.547z" fill="#7584f2"/><path d="m192.257 308.22v-79.182h58.051v17.807h-37.632v12.346h36.801v17.807h-36.801v13.415h37.632v17.807z" fill="#7584f2"/><g fill="#606aea"><path d="m316.073 308.22-33.477-45.823v45.823h-20.419v-79.182h21.012l32.053 43.567v-43.567h20.538v79.182z"/><path d="m367.711 308.22v-61.375h-22.2v-17.807h64.699v17.807h-22.081v61.375z"/></g></g></g></svg>